<mxfile host="app.diagrams.net" modified="2022-10-10T11:39:29.081Z" agent="5.0 (Macintosh; Intel Mac OS X 10_15_7) AppleWebKit/537.36 (KHTML, like Gecko) Chrome/106.0.0.0 Safari/537.36" etag="EbbqMpIzqnMtaX3zGnp7" version="20.4.0" type="github">
  <diagram id="5DTXNuMdea-42I5xbisy" name="Page-1">
    <mxGraphModel dx="872" dy="372" grid="1" gridSize="10" guides="1" tooltips="1" connect="1" arrows="1" fold="1" page="1" pageScale="1" pageWidth="850" pageHeight="1100" math="0" shadow="0">
      <root>
        <mxCell id="0" />
        <mxCell id="1" parent="0" />
        <mxCell id="m3Fp8r4ad19MvM2iiD0p-2" style="edgeStyle=orthogonalEdgeStyle;rounded=0;orthogonalLoop=1;jettySize=auto;html=1;fontFamily=Helvetica;fontSize=10;" edge="1" parent="1" source="m3Fp8r4ad19MvM2iiD0p-1" target="m3Fp8r4ad19MvM2iiD0p-1">
          <mxGeometry relative="1" as="geometry">
            <mxPoint x="50" y="80" as="targetPoint" />
            <Array as="points">
              <mxPoint x="810" y="75" />
              <mxPoint x="810" y="410" />
              <mxPoint x="20" y="410" />
              <mxPoint x="20" y="75" />
            </Array>
          </mxGeometry>
        </mxCell>
        <mxCell id="m3Fp8r4ad19MvM2iiD0p-1" value="High Level System Design" style="text;html=1;align=center;verticalAlign=middle;resizable=0;points=[];autosize=1;strokeColor=none;fillColor=none;" vertex="1" parent="1">
          <mxGeometry x="300" y="60" width="160" height="30" as="geometry" />
        </mxCell>
        <mxCell id="m3Fp8r4ad19MvM2iiD0p-3" value="" style="shape=image;verticalLabelPosition=bottom;labelBackgroundColor=default;verticalAlign=top;aspect=fixed;imageAspect=0;image=data:image/png,iVBORw0KGgoAAAANSUhEUgAAADAAAAAwCAYAAABXAvmHAAAABmJLR0QA/wD/AP+gvaeTAAAEW0lEQVRoge2YX0wcRRzHv7Mzu7e7dwcUWgotLRSrDRiKxmrRxMSHxiIYTXyAxMQYm0Dx4p++GE38UzVpYoyJ8aE2aoxWow1UIU1rDf5BE1+0tcU2UtFoLZQq/7kC93d3dnxAKMcdt3dHDmiyn6fbme/vX2bmN5MDHBwcHBwcrmNINpxKr50TC8es56qzEysbTpcTp4CV5rovgKUjJo3vxR1OcusdcTrRfSrzjI4ENlBJHOYEj6DBM2gnX10r0CYUSRInAeyiwHG0CcXOZFUVIInAPgJUAwAEdkhiusXWJutZpYoQhAj45g8RSE/ama2eAo6GN4GgNHZQbEXHRF4ys0UP8VIObCIdEO9PtDbN3c6yxddYCe5qGmX3onXaB6AGgAsgfwL4kje6n0pawHJjWNYVSiWBuOcNaY39FltByMbZr9WzhR7OGQVwOhUpgXVw9vfqKQAACDmQgugzs8HbNfu18luoTWhAKJ8Js0wI6z6bB3IXV4N75g/MqD8QKtUDoSymmQkcgAEgAOBXEPIxh/4hGgifL1r5FVicT3ij51E70UwBfYhKN0W5OjFAi8+fAGBh6OY6BNdugUVlyKFJaOOXsK63C6aWi6GqeoS9hXNOqBGCNnEZhRe+AgAMVtUjWFCG+dtBnRpG0bljMF0eDFXdD0P1xiQiB/0o/qUDLDKF4cpaGJ717cH/527b/VAxA28SBDuohOejQ+t7z5x518D8CDt3PxjXpwFASAzEMuPGTcUNrrpBIyGwyFTcPJddiLoLAELBQn7I4VhNxFsIQ88DsSyw8CRc0yOAiEnBBHAZgAagaKH/nzqPkZgCpDd7RxGJFCQqYrkhHm8bf6K8MRXtXBsllP2evZTSgDKDh/Q99sIZ5goQjH2aSby6G3LQ76tAn68CteVeewO7hHT9AJ4pCqSqv3bK2gSV+i6Ewc20OlOfrwKv7H8REiF4Yf+rKDv0WzrmsWjqH9bT27alY3LtJm4gnLi1jkziSoSAkCX+a6IoAYu670rXLDbq+yNeyT88BsOUAQFmhme6hBmEEvKjwLqKtaF/II/+DT/NQU/1Y6gt9+Kd2hIIAeztHEDnxfiOZAtj3PJ4a9Cy+eelFQDg9re6DrKvD/ksI5rUkBeU4ez2lM/a4jBmWh5PLVpKv83EPOG63/16e0+066NKWdVBFReoS4O+Zh30wmLkbixHfnklLkZUfH72ytKSV5Qpy6PfiebSnkxdLLpxd50c/6KmRK+TpcQPVi4E3v7uL4wHjQyiEgjd871Q1Hrs3RC0N0jiKtnkzo6xfdsLlTdKcl000fzARAiHf+yDyRNe4onDaVq/pbFmNG/pTDvbxB6T87IQ0jfHR47emOd6oDRfYwsNLo0F0N79L6bCSVaCMk5U1ymuKs+iafMPS8w5hrR63y0dI/fkMfJSvkarchUpL0eVqSYTYgmB7v6rON3vF5MRi4PSAKg0SBg7zyX5CB7flFF7dnBwcHBwsOM/wqpgVep+l3cAAAAASUVORK5CYII=;" vertex="1" parent="1">
          <mxGeometry x="140" y="10" width="48" height="48" as="geometry" />
        </mxCell>
        <mxCell id="m3Fp8r4ad19MvM2iiD0p-5" value="" style="shape=image;verticalLabelPosition=bottom;labelBackgroundColor=default;verticalAlign=top;aspect=fixed;imageAspect=0;image=data:image/png,iVBORw0KGgoAAAANSUhEUgAAADAAAAAwCAYAAABXAvmHAAAABmJLR0QA/wD/AP+gvaeTAAAHa0lEQVRoge2af2xT1xXHP+fZ+d1CEiiIioLt8GvTNLXKpq1aJdp17VYJNlUq6SbiQIC88GMwfnXq1LRKEd0G7ZqW8iPGpHR2QtWkXaeOsXUVo5XKOq1j2thQywa2Q1NQ10LQNghx7Hf2R5zkEeyQl9jqP/1KT3nvnHPvOV+/++6959zAZ/h0IbnqeM4Bc3LC4l5URdT1xuma5n/nwk/WCUxv31Dk7r28TtAG4IaUOI7QnN+baDi5/Pn/ZtNfVgl4Q/ULMXQHiieDyVmQx6Onp+2jsdHKhs+sEKhoW1FpWfIsyNds4qRCSFALZCngGlAo/MEQXR+pDr47Xt/jIjDngDm5z+JRlDX2AIG31ND1scXBvwJ4DpjzjCRPK9xns1GElw2Xe9Pp7+3+YKwxjIlAZcDMO1+sqwXZAkywqbpAHolWB8IIOrydN1S/UEWbBCps4ksCT1mJ+E9jtS9ccRqLYwK+n9d9Qw3ZAXzOJr4s8GS8oGRbV1VTz0jtM5JXPkCkIeoPhJzEM2oCIw0DJPlQdHFLpxPHM8PmNAMagRWAMRiQckTVWh9dsu/4aPq5LoEZbavKXJpsRFkNuG1Nj4nq+kjN3redBD4c/ROA8Qxwh01sIbS54n2bTi3b//FI7TMSuPNIo7uz69wy0K3ATTbVOZDGbE6FKOINmw8gPAnMtGm6FdlWUnCh6URVR3zUBGY9X3tTMi/vEPAlm7hXlaaSQvcTJ6p2/y8rgQ/D1JC/pNgofBiVTUCRTfVu3Mq778Mlu84Pb5OWgDdc3wq6eMhIXk0YxuYzi/dEsh/2tfDsX+mRPGs7yqIhqYai/uCS4bbu4YKU8YLUTY+ILIxUBw7nIM6MiNU2x4AqT6huvoj8GigB+XY62wwEmAigQiSaheA9B8x5ktQvglGqqoUickXhTMKSv3ctaf4wI5Ga4FvesPkv4Fag1AmBUcMbNv8EfBn4z8zpN096867GBADti1y+3jLTgk2SpKJ/tCoi9P8F8gzFG64/Jlg/ifiDr4zFv3F9k5GhUJ66nRCLxdxDwZd3KOwetuqm66FSkZe94bqfjcX/uAmkgy9eWq/o/UMSPQo8JqLLVeS7qrIK9GnAtvjJRl9r3YLhfV0P4x5C6aAqNbbHH0f9wUfS2VUGzIe7i+WlAbKqrAMOOvGVkzcAzBi4sSzJGNCx+r19ivEjGNj4yVdTn8eokRMCAt2DDly6oeLF1bdkso3695xUdIOg21T0Kae+cjKELOU1ET4PgLLISiQWpabD48BJVN+31PWPG4rOnzhR1RGP+YPPDjauduYrJwR66NlaLEXzUW63iWenLhDBEIvLvWUJb9h8H+S3BonAaX/LKae+cjKEPqoJXyq/xHyFlSB/BDJt+tzAF0A3W7je84TMdU595eQNQP8HCgSAgGf/0kIx3HMQYy7CbIVZqfXhNuDGgVhEaPK11r3jJFfOOoGK0MopFtZ8AEt4u9O/91wqVTyeugYxa8faAqv8yj2qsov+mcsAeQAYNYGsDyFLrCqEdoT2VMaVEafWPdcbqQ4eRCU4IFOY5sRf1gmIin3LvXBqyF8yikZDSYyFowpe1gnEC4uPAB+lHqcVG0VvVIRWfP3OI43XDFfP/pUeT2vdY0DtUEDWISf+sv4NdFU19fjCdWsUaQcMlNstMQ53dp3FGzY/Ac4ruAXKwSpDbQuv0HHav+/3TvzlZBqN+IOviOh3gK5hqsnA3NQMVGaTJ4CdxfndDpexHE6jkergwcqA+Xp3kSxU0btAbwOZQn9iIsAFVP4phh5NWtZLnTX7omPxk4nARaBUlApfa92CSHXQ0Q5xAKm14BepyzG8rea9KHNSj93pbNIOIRH5Zeq2UFV+5Q2bv/EcMOddY9ifYA1W1ybF85NjCXQ4fG31s71h8zWU14FiAFVeTWeb9g3E8xOb8nqN2bZq87ckyd2+kLkr4XJtObN4TzeAL1x/v4oO1Iw+Sf3iY8as1rUTktrboJb+AMgf0uhRy+XenK5N5r13+yKXN166DJWtwBSb5hJwmP5q9D2DjoSOaPXeqjFF3thoeH3nahF9Aphq03wM0hAtuNBCVUfat3vd5MHXbk7UKzyKsJarfpWr0Avylag/8DensftC5h0q8gxopU3cp7CTRHxLrPaFiyO1H3X242urn43FGkWrgUk21XuKsTrmb37TSeAVL66+RROJ7QoP2uNQ9JDg3hj17zk5mn4cl9dn7VhbkJzYMxe3q9SwEmed7uFvDpjFhcX8UOEhUh9oCidFZWOkJuBoJc7KEdPclmU39uW5V6iwVFX2xCLT9l5T+FXEE657UJDtCPYU86IoW8p62DmWSWDcBLxty2diuf5M/yo70OlfkpZ8v3NJ4B3IWEJPAi2uvr6G65XQR0JW3sCMtlU+l5VsAuz1SwXa6D/kq+bqNeeqM7TxIKvHrL7W+rtR3aGkEvprMeIZ2liQ1c1cpDpwuOwytyq6HrAfaF8WeLyvoGRO1B8IZSt4yOG/GkxvX16e3+v+pqWWJgqt33VVtVzIla/P8Gni/yulzlOAkfO+AAAAAElFTkSuQmCC;" vertex="1" parent="1">
          <mxGeometry x="450" y="110" width="48" height="48" as="geometry" />
        </mxCell>
        <mxCell id="m3Fp8r4ad19MvM2iiD0p-6" value="" style="shape=image;verticalLabelPosition=bottom;labelBackgroundColor=default;verticalAlign=top;aspect=fixed;imageAspect=0;image=data:image/png,iVBORw0KGgoAAAANSUhEUgAAAEAAAABACAYAAACqaXHeAAAABmJLR0QA/wD/AP+gvaeTAAAPXklEQVR4nO2beVRVVf/Gn33Gy6gSoIKgOGI4pPiqGWWJI4LzHE4hUpimaZlDhlngkK+IihiKaM5pSYKaA2lmKig4i5ZiyJADpAKXe8+0f38ALgyEC4K8v7X8rMUfnLP3s7/7uffu6XwPQQ0x9Q8qsrJ0CZQsDnUTomqqneeFqSnhVc0hgZJ9FLhSU238f8cLwAoAbWs7kOci52zPOvmnfCaZWJwAGMwL4iWGZVWnV9saAWicIMYCcK+5KGsI+stwy/zT3j/mn/b+R3/G+/VyijIAfHhRvMSwrNJ1yGjl65NXaWSGkS44lEA79hskA4RyPH8awDsvKHwAhZ9IlaA0iMlPODuTUCwEYAbQwwxhAsy67EstUYwBMJQXxSWaqjp3GzmeDPh4PlO3gUMpvfRrl3BwzTIlIeZ7luWEs4pkWARgX1XjM5UqG1BM/hkfb1AaaN4ltj8hoEWXdQBG86LuC4A6vjnGj/WaNpvUsW9QoV7m9avYv2qJkhCzi+EE4ZxsMAQDiAGeaFcrz20AABgS+zfV/SfuVolLJ0DIG67dupPx30TA1tml0pqX439GuP8IyAYDAMwFEFIdsf6bapkG/9V5AEjR2TXC7WvX5AU9Oqo7gz6hOZnpJmndvnAOa/1HKmHjB1Gbpq6SYGElA7hTHXGWRU2tA1TL5u1pp7Un+BbTQtmEo0fkOV1b0Q1TJ6gZKWUvC/5MOImVvgOkr726ISsjCz6rdpPRu88IrCBqqKGvPwBwNSUMACAMbNx7wMa9h/A45Sz++DFcPe3ZkW3q3kXxmjqba+fZDxePHkDMsoVSRsoVvpmnDzt61++o38a9ZuMqwQtryNq1E6znRAl5Ny8ife86rJk4FCwvaIRhaJvhfnzvsD3EqqET+6LiKeaFGVCMZbN2cJ25hrv/eyyuh05nPjiVBbGOzYsO4wk1theoCKGuPQBAtK5XWyEAqEUD/ld4aUBtB1DbvDSghnSpPi2F5t++9hwKFKnH9kPW57EAtGqL7F/U1DQYXnD3TqvkT33eruPWVXIaEijWbdvNpIqqLOF63E4kfLtEepR2i2VYZiuAn2sozhoz4BKVjT0AtMtNSZx9+avxI80dmymNBgaIdh4DQNjS6x1Zn4fLe6KRGLlMMjzM1jRNjYSmLVU11bRNxP84TQAmjDBsgVCvvqHphPnUbc4GCoBOPnGHdg2crwkWVhIrCA8BBAGo3cVBDWILIIiw3EPCcioAynCcwoq6WwD8AIi1G171wAAYVvT3rEHWHMA8EJIOYFA55SwBBAAwbQCpZTgA43hRTOUEQeYEQeZFMRXAeFR+rKkL4HOW5x/pLK0kQojGieKvAN6u7qCrAx7AOF7U3eZFUe4xMVD7JvkvuuJSBvX5eL4mmltInChmAvgIhUdl5WELIIjl+Vxr+wbGUQuX0/CbD+nC+GTadchohTCMygu6RAA+qKbTrOcREQBMYAVhIcMwtp7vfcj1nTITFnWf3tkV5D7G8c3fIi5ssSwbDbmqLC8FsAqAvkQxezDMFJZhZlnZ1Wf7vv+x2H2cPzjh6SHhQdptxK1eov2+YxNYjrshG40LAOzGcxyYVMUACwCTOFGcxwtinZ7+04Se/lNhbl233ErG/Dz8tj0asaHBkiE/t0CRpFAA34NhAhhCAuycXWj/6XPELoNGgeHK/8Vkp6fh8LoV2rHvIinDMLdko/ErAFsBqJXtTOUNIMQASsVuI8ZhzFcrIFpYVqq6VKDHji9m4cTWDQAAhmExJjgUb707CYSp3MI0JzMd4X7D6V8XkwhhmBSqaa2L79EJQToSHWSoSKMqS2HOsrGr8vv33yHcf6R8/dSvJlf848xviJg8SjmxLQqvtHBTAEBn6yDvWDBT2zpnqnrv9k2TdFRFxuk927ByjLd858pF2LZwoywn5JUsowjal7L/gj4VaVXBAEKb+H7GdVjyEx5o5mT5iL50oae7fGr3Fmhq6W8g1TRcOByHYG8PednQnsiTgZFbj+Gd+aEcAHQMO8K3nLGaOZ+QqM33cMNK3wHKzXOny2zZqM/H0fWr8VnnVvLmTwNVuy492ImHUkhTzwEEDCkoLicHBL1FKCYxBCF0UlCjcntT+f4zcpu5UVzd9h4AAMO9dGTGRdG7R3dSa1t7tU/AdP4tXz8QlkVizC7EhgZL2elpXIu+w2jngDmsTdNWAID0xF+xe3wveOz8AyCFYTxOOYuMvRFKdvJxzuW1TlL/j+YI7Xp6IS/nAX6JjsCR9atUEEZr7zuFf813CnRFR2m/hwUhKTr0hGIoeKs4TMU/aADLI4GEB/1dowYUIz/KRtbBzcg6+J3KFqlSgL72biDXfuyHMLexe6p8WQYUo79zAxk/RWr3T+4jZlbWmiEvj1jaN1Q6+X8itB44Fpz49GxalgGmUm2bIb7OK3AeOQOOAwPYy4vGwcJMwNCoA+DNKzdIAoC5U0u0mLKMcR41E8kz+6LNsInM2/NChcoOkqZQ7btBVmcOc8dmsKlnUaXOl0R8pQE4c2vV3q0jWxOdB16eCL004KUBtR1AbVNZA7wAyuYkxUOTjVVuVDEacCu+MPkjJ/kXgFb94a8+5z7SE45Bk6VWANpVtr4pBpRMbPqpSbuONOfEXjXxfQ85Y98GqAZ9hQLFyPo8nNsYig09milX90Qrjdu705RvAmnSLC/pwakDADX98Dfv7wwcC55Jozybafq/78iOrm42AM5zghgHoJOpOuVNgwyA/rwoBquK0trdewgGzFrA2jVuCqM+H79t28juW7lYvrNnNXHwmsA6eI0nnGXZO0IpPxdXftiEhIhgBZpGe/pN4XtNngYzqzp4fP8eDq0L5Y+umaWlbg5RHX3e4xv0GgOGF8rUepx+G0mbVqqXdq0ndo1dlHFLw4Uug0czDMvizpULiF0R3DvpQIwXx3NnFFmeCyC+PAPKWgkWJTbpllBKnbr7TmL6TplVZmKTIktIjNmFH5d9KT2+f5e1f2cE4zT4ffLX9uV4pZ4F3pwZjAvbImjSplDNzNJa6xc4k3/L1w+8zqyUVm72fcRHR9BDEaEa0ZlrjgMm8w16jkLS9N7Sm9O/EBq064zEyKXq9f27GIcWrRXvGXN59/5DQEjpLmSkXMaB1UtNSrgqWVsAMI0TxI8IIfU9/T7kegdMJ1a2dmXVewpVkXHmh+2IWREsPczKZAUbe0YUeJJ/L1OrU7+hMmDGXKHLkNFgOb5CLf2jf3A0KhyH1q1UVcJommRk6zZqguyb15jmnd+QBs78XHB9w7STsczrVxEbFqKd/Wk3KUq4Wg1g07MM+BzAl7xOR/1XbyYd+g00qZGSZKRcxpqJw+j9tFQCAHbOLnTKxt3E0bVNpbWS9u/FhmkTqVSgJ4Qw9PXhvmTYvGCY8oGURFMUHFm/CrGhwWpB7mMWgAuA28X3Sz6hcOIsrL1tOnnieHgISYr7QREtLFjHVm4VHlT8dTEJuxfNVrbNm06snZvL9Zq6spydM2BuLR9cOp+9lXRGtnVqwto4OpWrQzUNF4/sR2TgWCk+ag3r3K2nZsx9pFq3fYNNP58oH1wVQh7ey6QNm7cmFnXLf3Rg1Ofj+KZvEREwRr4UfxBNengz2TeuEBSm5z4qLvdUzwjD0pZT/8u5hx0lmos7u+mTQO2zrq3ko+tXQzYU/LsN/JlwEqG+PtLXXt1w78FDjNjyCxm54zfBqkEj8HVs0XpOlNB+cQzuKTqydIgnDfb2kC4cjgP917SnSEac2r0Fcz1eldb6j9TMXVrz4/dfxsC1e1lGEKmN+zvouOoo33LGKib55Cll3hutETZ2oJp6PrFUTLnZ9/HT8kX4xN1F3bt8keI6dCLv98stttvUhWXufEtefJe3qrehy4bEJyeR8uMcZP28BVn7o1WeYzVPvyn82+MCcOPMCcSFhkiZf1zjW/YdrnUOmM3aNHtyGoVD8/yR/U8+WgQueXLNcDcNWfuj1b+P7CB2zk2UXpM/Ejr0G4iEH3ciLmyxbCwoYNyGjGc7TZ4NC9v6T+pF9mgmOQyeItR/Z/iTa4XnBmvl7ORf+aYd/qN4TfuMc2zlhsORYfTE1g3UzMZO6TBhutB2uB+4ogH30Z1UbOzjCgCNAaSZZEAxqkGPu0d3InNfpGzIucdzOjOt3agA4j5hOrGwb1jK1bIMKEb65x4yYzfQrENbqWo0MJb2DnKnSbN4t6ETwJtZlCpflgHF5KVeRUZMhPLg1AEWALF3bSd1CvhMaN5zUKmf7bMMMGk7zOrM4dB/Ihr28eVPjmmN/iu2MS7dvUypWgqhnj2ajJ1DrN1eJ1cXT8J7h6/zz5rzK8LS5VW0mh7GCTYh0F89KY3ek1BpoUothQlb6Nfz7vOBQlMBgDFhaqwIzsIaooVlldbTLzdDtR1AbfPSgNoOoLYpaYCiFORxWT9vgWYsvegxiaLEplvxsVrO+eNazrn4Ku/1FaMBF3d+i4IHd7msn7dqz5Nwlf/gLs5vWf1EuuS9ktPgPqrIi25FfzXj9vblZo79J/IOfccRzqr8h55AUWJT7A4kRC4tTGxiyF5Vpbi29P2BYgNn1WnwB6K9xwAQE0Z8w6McXNy+DueiQ2WlQG/QFHlPftr1Zsmf+njUafO64jT4A97UhKt/Um/gbNR/tWsx31HCcmkAFgLIfJYBegALqaosVvW5I9Nj1n1554fwRnbd+jNOw6YSs4ZNSjXwjMSmZapW+IIDBeobstIC/1w37+PUzcGiQ7/xvIPXBHAW1qW0Hmem4eL2CHph21pV07T7qtGwBMB6APlUkQGgfe61hE8vXzk90syxqeI08P1nJlzdu5qMpI0rlOv7v2dZnr+iKco3UJRKPz1mAPgwgpgMQrR6Hd9W2n+9hwKgPqu+p10D52u8uaXE8kIOKk5ssgLwEeH4u4wgSg37jtNcP15NAdB3f0ykrj6jFcKyKifqUgCMQ/kLtFIJV07DPqQN2nYyjNgSTxt79DaAEI0VxIMAelamw+XRi/DiMRQmIlDCsior6m4CeA+F5whPEZzUz+7r5F6vlaEjAHiP4cWbhGHVYj1W1B0H0LuSMb0CYAHh+IcMLyoAKGEYmWH5TQBeraSWyXQAkAhgLMqZQUIu9F4TcqFPTjk6TJFGIoCOzxmTGYClAGIBOFa2crXk2ZQk+EKfMwToXPRvLijTfc5rB5Kru53qoibWAdsB3ACgAXQjr3CVeuMr/5S3f95p74k1ENeLI+Ri7xkhF/qUneVQAfoz3lvyT3u/sNft/w8oKy75kwPnZAAAAABJRU5ErkJggg==;" vertex="1" parent="1">
          <mxGeometry x="560" y="106" width="64" height="64" as="geometry" />
        </mxCell>
        <mxCell id="m3Fp8r4ad19MvM2iiD0p-7" value="" style="shape=image;verticalLabelPosition=bottom;labelBackgroundColor=default;verticalAlign=top;aspect=fixed;imageAspect=0;image=data:image/png,iVBORw0KGgoAAAANSUhEUgAAAEAAAABACAYAAACqaXHeAAAABmJLR0QA/wD/AP+gvaeTAAAHDklEQVR4nO2ba2wUVRTH/2dmu91KuwuFIK0FqVpEWx+JgPH1QRINQduqKSKtBEWliURNaKkIPjYooohoFGMafARri4FKLCtoMCFRg9FWE9FFKq8WalvEUNyy79mZ44fuwu523zuls7G/ZJKde3buPefsnTvnnjMLjPH/hkZbgZGmdMF2PSbkvAzCYjAYxE0YcL94cMeDXgDQjbaCI06+YS2ABgD+n5ueRb4BAFYBGnQAW6vbAcxWq787tniks25DWCstgd8BgloDqYhqxgMAiDhCqxz4oLkZcAGaQ2XNHen2Ulr70GsAng3tGk2Bj5p1gBrGAwAG3C8i3wAwLR7qmJtwxv2SKn2PBGytZrZWR5q2I4IWZ0A7GMpoKzHG/4WQSPCaWst8AWgEUBTczkB/779Kr82FWbE6M+VQx2XjqYiAgjDRX6zwsj+2VHyljtrqEbIGRDIeAAgouMwksM0V+9aMYjwAFJFAjQCmpaNsKiQbCg8zPgARCvWC0O9VlEgGQi+ij4DCGLpMbWn6IGR1N5mM5z8f6jyM+obn1d+bqBkKF0+i3q4zYK8caqheRF/xROpDbAfEg81ms2A2m5N+AvCBxeMgyvsAzAmXxQuFk3KATuRZJZMjRs+FSM94APg7N1c/A0Bn0leKvvcAGmY8gMwJhfNyxx0957AvRWC6+vm5sTGrZ2LupmNd3VP0Ej359OrV/wTL2VqzBOAlABwgzKXSlvZgebxQmEK/bAnxlvWpbenYhLJ3F4Wcr7n975Dz4DWAmX1dJ052eN3uprqGF94HgJ07d07MzvJtBeMej9t9uOtkz2lZkRY0NJhPAQAffPgqsPIrgHEAPUJlzVvDdShdsF2PfMPakFA4aBHUjAMCuFzuw5IkHTaZ8hzMuBvAhIAs3An8+6K7QLQXxB9R6bbHUtFRc9vhnBzDDKMx715mLESQ8QCQbTDMKJ42rVCkrNYNG8xT6Lpt38CnK8K1Vz+R6niac0A8sg3ZVxiNRp9A4goAoBs/6SVK/skRIPYiOHNLqv362RdyJup03VkitSkC7R2fpftFdMNhzxGKRPBNisL3kYBKMLJi9fjv4LkOm23QlmeavCZN5QBc5KfAwkWPFEdo7vQfzRZLa4kA5Q0AlZGul2V5oL+/f5Kg882rra2V1NBJU7dAeXnVkfnlC+4H02pg+JbYZjt3iJn3r1hhHlBrTM3EAQFoKHBZv7ttB0D8arDM55NkIhpUczxNzYBg5ldUvUaEXcFtecbcyVBwi5rjJOaA7nVA5xNDR/f6+O0qQEQsQ6gH4fy9nmPImanP1jvffGPdw2qNk+AMiLZJG9nCUnl51RFW0BbcduWV0+cY8/Iefeft1+veemv9dGZOS4nE1oDpq5NrVxVuA6jqwimyCgunzAUwF8DGPZYd2Ljhlahb6YwvjYmgjrQypKrkA2z7kxvUdFty34+BwYNeZ/h2Poya246jLkoqPRNLYyG4cr3xdYy1DGRKPiAasmwoFOKUCZp/KI6+BmRqaSyAwEp6xdI4pTHNO4AZFRT82xKkvt5T33s8nt1uiT6vq6s7eU9FxGkOAPCv9qv8xzA07QCLpbWEoFQiyLyuY10dLsn34cqVa1oAoL6+Pq0xNLsIMjOJUDYGb4+dTlenxysZAsarQWIzQMXHWqLs2dW6CoSK4Da73X6aCVY1x9HcLcDMNGQ8vxIu04miCIZJzfE0dQtYLK0lX3254wv/NniYbqbxpmtBuHXTJnO+WmMmNgO61wHu7sR6NFwBTH8uomh7y9ZunQ5fMIRvTNniz6JH53BcokyFTDcBVElQKjlGSkwUxQkFBQVH+/tOfdzY2FilRlYowVtAnV2fT5Yu98l4BsAzpz1DaXFShAvdJ/BeyHhj3mynw/mtbfD0OoQVUVIhvd3gKOBxe44PDg7qFJY3AQAfqCnC9SV9qWaGNbUGAIDL6eo8N2hvI6LPAITk/oYKIyf7ZJaqzhdGRO7BH3+mnL7WzFNAYZa6u060uyVp88qVaz4DgK+/3p4vS/gkWmkMgtgFVhxgWsrWmu+ilsZi5AM0MwN6e/t/8ni9ewPGA8C8eQ8OXNp39n6vV9p8/ETPb1leeuC88QCo9NOjAC0fOuP3+GD18ApxvmEtCA0ACkAo9OcD1gbEMWdA2fJ9scSqYrfbr1LAS8PbZw2t9E9Fu47KmreyddGdAC0B4ye2VofIMykfcKnTKR9L6UpZtxxAe0RZBuUDKJW3QwCAbmhyALg5kizZfMBfiPGeUJr0VC9+/KK/JJVUPoAVXuZ/m2uqymr0AMIylftMiHj5gDHG0BhsrW5na82PF2s8LT0FAsxOaFekElp0gKpkTCgcTsSwNhXSCYVHlQhhbSpkUigcIHJImyoZFAoDAKisJWJImyoZXxpLm0z719gYF5n/ACnBCEqN54h8AAAAAElFTkSuQmCC;" vertex="1" parent="1">
          <mxGeometry x="364" y="170" width="76" height="76" as="geometry" />
        </mxCell>
        <mxCell id="m3Fp8r4ad19MvM2iiD0p-8" value="" style="shape=image;verticalLabelPosition=bottom;labelBackgroundColor=default;verticalAlign=top;aspect=fixed;imageAspect=0;image=data:image/svg+xml,PHN2ZyB4bWxucz0iaHR0cDovL3d3dy53My5vcmcvMjAwMC9zdmciIHdpZHRoPSIyNTAiIHZpZXdCb3g9IjAgMCAyNTAgNTYiIGhlaWdodD0iNTYiIGZpbGw9Im5vbmUiPjxnIGZpbGw9IiMxMDM1YmMiPjxwYXRoIGQ9Im0xNS4wNzM2IDE1Ljg0NjZjLjExMDUuNTUyMi4xNjU3IDEuMDg1OS4xNjU3IDEuNjAxMyAwIC40Nzg1LS4wNTUyLjk5MzgtLjE2NTcgMS41NDZsLTcuMDEyMjUtLjA1NTJ2MTguNTUyMWMwIDEuNTQ2LjcxNzc5IDIuMzE5IDIuMTUzMzUgMi4zMTloNC4xOTYzYy4yNTc3LjYyNTguMzg2NSAxLjI1MTYuMzg2NSAxLjg3NzMgMCAuNjI1OC0uMDM2OCAxLjAxMjMtLjExMDQgMS4xNTk1LTEuNjkzMi4yMjA5LTMuNDQxNy4zMzEzLTUuMjQ1MzguMzMxMy0zLjU3MDU1IDAtNS4zNTU4My0xLjUyNzYtNS4zNTU4My00LjU4Mjh2LTE5LjY1NjRsLTMuOTIwMjQ2LjA1NTJjLS4xMTA0MjkzLS41NTIyLS4xNjU2NDQtMS4wNjc1LS4xNjU2NDQtMS41NDYgMC0uNTE1NC4wNTUyMTQ3LTEuMDQ5MS4xNjU2NDQtMS42MDEzbDMuOTIwMjQ2LjA1NTJ2LTUuNzk3NWMwLS45OTM4Ny4xNDcyNC0xLjY5MzI1LjQ0MTcyLTIuMDk4MTYuMjk0NDgtLjQ0MTcyLjg2NTAzLS42NjI1OCAxLjcxMTY1LS42NjI1OGgxLjQ5MDhsLjMzMTI5LjMzMTI5djguMjgyMjV6Ii8+PHBhdGggZD0ibTQxLjc5MTUgMTYuMTIyNy03LjU2NDQgMjUuODk1N2MtMS4zOTg4IDQuNzQ4NS0yLjg4OTYgOC4wOTgyLTQuNDcyNCAxMC4wNDkxcy0zLjk1NzEgMi45MjY0LTcuMTIyNyAyLjkyNjRjLTEuNjE5NiAwLTMuMTEwNC0uMjM5My00LjQ3MjQtLjcxNzgtLjExMDQtMS4wMzA3LjE4NDEtMi4wMjQ2Ljg4MzQtMi45ODE2IDEuMTQxMS40MDQ5IDIuMzU1OS42MDczIDMuNjQ0Mi42MDczIDEuOTUwOSAwIDMuNDQxNy0uNjYyNSA0LjQ3MjQtMS45ODc3IDEuMDMwNy0xLjMyNTEgMS45NjkzLTMuMzg2NSAyLjgxNi02LjE4NGwuMTY1Ni0uNTUyMmMtLjk1NzEtLjA3MzYtMS42OTMyLS4yOTQ1LTIuMjA4Ni0uNjYyNi0uNDc4NS0uMzY4MS0uODgzNC0xLjA0OS0xLjIxNDctMi4wNDI5bC03LjczMDEtMjQuMjk0NWMxLjE0MTEtLjQ3ODUgMS45NTA5LS43MTc4IDIuNDI5NS0uNzE3OCAxLjA2NzUgMCAxLjc4NTMuNjQ0MiAyLjE1MzQgMS45MzI1bDQuMzYxOSAxMy44NTg5Yy4xNDczLjQ0MTguOTkzOSAzLjMxMjkgMi41Mzk5IDguNjEzNS4wNzM2LjI1NzcuMjU3Ny4zODY1LjU1MjEuMzg2NWw2LjczNjItMjQuNDA0OWMuNDc4Ni0uMTQ3MiAxLjEwNDMtLjIyMDggMS44NzczLS4yMjA4LjgwOTkgMCAxLjQ5MDguMTEwNCAyLjA0My4zMzEzeiIvPjxwYXRoIGQ9Im01Mi40MDA5IDQxLjEzNXYxMC45MzI1YzAgLjk5MzgtLjE0NzIgMS42OTMyLS40NDE3IDIuMDk4MS0uMjk0NS40NDE4LS44ODM0LjY2MjYtMS43NjY5LjY2MjZoLTEuNDkwOGwtLjMzMTItLjMzMTN2LTM4LjQ4NDZsLjMzMTItLjMzMTNoMS40MzU2Yy44ODM1IDAgMS40NzI0LjIzOTIgMS43NjY5LjcxNzguMzMxMy40NDE3LjQ5NjkgMS4xNzc5LjQ5NjkgMi4yMDg2di4yNzZjMi4yMDg2LTIuNDY2MiA0Ljg0MDUtMy42OTk0IDcuODk1Ny0zLjY5OTQgMy4xMjg5IDAgNS40ODQ3IDEuMjcgNy4wNjc1IDMuODA5OSAxLjU4MjggMi41MDMgMi4zNzQzIDUuOTgxNiAyLjM3NDMgMTAuNDM1NiAwIDIuMTcxNy0uMjk0NSA0LjEyMjYtLjg4MzUgNS44NTI3LS41NTIxIDEuNzMwMS0xLjMwNjcgMy4yMDI1LTIuMjYzOCA0LjQxNzItLjkyMDIgMS4xNzc5LTEuOTg3NyAyLjA5ODEtMy4yMDI0IDIuNzYwNy0xLjIxNDguNjI1OC0yLjQ2NjMuOTM4Ny0zLjc1NDYuOTM4Ny0yLjUzOTkgMC00Ljk1MS0uNzU0Ni03LjIzMzItMi4yNjM4em0wLTE3Ljk0NDh2MTQuMTkwMmMyLjI0NTQgMS42NTY0IDQuMzYyIDIuNDg0NiA2LjM0OTcgMi40ODQ2IDEuOTg3OCAwIDMuNjI1OC0uODgzNCA0LjkxNDEtMi42NTAzIDEuMjg4NC0xLjc2NjggMS45MzI2LTQuNDM1NiAxLjkzMjYtOC4wMDYxIDAtMS43NjY5LS4xNjU3LTMuMjk0NS0uNDk3LTQuNTgyOC0uMjk0NS0xLjMyNTItLjY5OTQtMi40MTExLTEuMjE0Ny0zLjI1NzctLjUxNTMtLjg4MzQtMS4xMjI3LTEuNTI3Ni0xLjgyMjEtMS45MzI1LS42NjI2LS40NDE3LTEuMzgwNC0uNjYyNi0yLjE1MzQtLjY2MjYtMS40NzI0IDAtMi44NzExLjM4NjUtNC4xOTYzIDEuMTU5NS0xLjMyNTEuNzczLTIuNDI5NCAxLjg1ODktMy4zMTI5IDMuMjU3N3oiLz48cGF0aCBkPSJtOTcuNjk3MyAzMC42NDQyaC0xNy4xMTY2Yy4xODQxIDYuMjU3NiAyLjU1ODMgOS4zODY1IDcuMTIyNyA5LjM4NjUgMi41MDMxIDAgNS4xNzE4LS43NzMgOC4wMDYxLTIuMzE5LjgwOTkuNzM2MSAxLjMwNjggMS42NzQ4IDEuNDkwOSAyLjgxNTktMy4wMTg0IDIuMDYxNC02LjQwNSAzLjA5Mi0xMC4xNTk2IDMuMDkyLTEuOTE0MSAwLTMuNTUyMS0uMzQ5Ny00LjkxNDEtMS4wNDktMS4zNjE5LS43MzYyLTIuNDg0Ni0xLjczMDEtMy4zNjgxLTIuOTgxNi0uODQ2Ni0xLjI4ODQtMS40NzI0LTIuNzk3Ni0xLjg3NzMtNC41Mjc3LS40MDQ5LTEuNzMtLjYwNzMtMy42MjU3LS42MDczLTUuNjg3MSAwLTIuMDk4MS4yMzkyLTQuMDEyMi43MTc4LTUuNzQyMy41MTUzLTEuNzMwMSAxLjI1MTUtMy4yMjA5IDIuMjA4NS00LjQ3MjQuOTU3MS0xLjI1MTUgMi4wOTgyLTIuMjI3IDMuNDIzNC0yLjkyNjQgMS4zNjE5LS42OTk0IDIuOTA3OS0xLjA0OTEgNC42MzgtMS4wNDkxIDEuNjkzMiAwIDMuMjAyNS4zMTI5IDQuNTI3Ni45Mzg3IDEuMzYyLjU4OSAyLjQ4NDcgMS40MTcyIDMuMzY4MSAyLjQ4NDcuOTIwMyAxLjAzMDYgMS42MTk2IDIuMjgyMiAyLjA5ODIgMy43NTQ2LjQ3ODUgMS40MzU1LjcxNzggMi45ODE2LjcxNzggNC42MzggMCAuNjYyNi0uMDM2OSAxLjMwNjctLjExMDUgMS45MzI1LS4wMzY4LjU4OS0uMDkyIDEuMTU5NS0uMTY1NiAxLjcxMTd6bS0xNy4xMTY2LTMuMTQ3M2gxMy4yNTE2di0uNzE3OGMwLTIuNTM5OC0uNTMzOC00LjU4MjgtMS42MDEzLTYuMTI4OHMtMi42Njg3LTIuMzE5LTQuODAzNy0yLjMxOWMtMi4wOTgxIDAtMy43MzYyLjgyODItNC45MTQxIDIuNDg0Ny0xLjE0MTEgMS42NTY0LTEuNzg1MiAzLjg4MzQtMS45MzI1IDYuNjgwOXoiLz48cGF0aCBkPSJtMTAzLjM4MSA0MS4wMjQ1Yy4wMzYtLjgwOTguMjU3LTEuNjkzMi42NjItMi42NTAzLjQ0Mi0uOTkzOC45MzktMS43NjY4IDEuNDkxLTIuMzE5IDIuOTA4IDEuNTgyOCA1LjQ2NiAyLjM3NDMgNy42NzUgMi4zNzQzIDEuMjE0IDAgMi4xOS0uMjM5MyAyLjkyNi0uNzE3OC43NzMtLjQ3ODYgMS4xNi0xLjEyMjcgMS4xNi0xLjkzMjYgMC0xLjI4ODMtLjk5NC0yLjMxOS0yLjk4Mi0zLjA5MmwtMy4wOTItMS4xNTk1Yy00LjYzOC0xLjY5MzItNi45NTctNC4zOTg4LTYuOTU3LTguMTE2NiAwLTEuMzI1MS4yMzktMi41MDMuNzE4LTMuNTMzNy41MTUtMS4wNjc1IDEuMjE0LTEuOTY5MyAyLjA5OC0yLjcwNTUuOTItLjc3MyAyLjAwNi0xLjM2MiAzLjI1OC0xLjc2NjkgMS4yNTEtLjQwNDkgMi42NS0uNjA3NCA0LjE5Ni0uNjA3NC42OTkgMCAxLjQ3Mi4wNTUzIDIuMzE5LjE2NTcuODgzLjExMDQgMS43NjcuMjc2MSAyLjY1LjQ5NjkuODg0LjE4NDEgMS43My40MDQ5IDIuNTQuNjYyNnMxLjUwOS41MzM3IDIuMDk4LjgyODJjMCAuOTIwMy0uMTg0IDEuODc3My0uNTUyIDIuODcxMnMtLjg2NSAxLjczLTEuNDkxIDIuMjA4NmMtMi45MDgtMS4yODg0LTUuNDI5LTEuOTMyNS03LjU2NC0xLjkzMjUtLjk1NyAwLTEuNzEyLjIzOTItMi4yNjQuNzE3OC0uNTUyLjQ0MTctLjgyOCAxLjAzMDYtLjgyOCAxLjc2NjggMCAxLjE0MTEuOTIgMi4wNDMgMi43NjEgMi43MDU1bDMuMzY4IDEuMjE0OGMyLjQyOS44NDY2IDQuMjMzIDIuMDA2MSA1LjQxMSAzLjQ3ODVzMS43NjcgMy4xODQgMS43NjcgNS4xMzVjMCAyLjYxMzUtLjk3NiA0LjcxMTYtMi45MjcgNi4yOTQ0LTEuOTUxIDEuNTQ2MS00Ljc0OCAyLjMxOTEtOC4zOTIgMi4zMTkxLTMuNTcxIDAtNi45MjEtLjkwMTktMTAuMDQ5LTIuNzA1NnoiLz48cGF0aCBkPSJtMTUxLjc3MiAzMS41ODI4aC0xNS4yMzljLjExMSAyLjAyNDYuNTcxIDMuNjI1OCAxLjM4IDQuODAzNy44NDcgMS4xNDExIDIuMzAxIDEuNzExNyA0LjM2MiAxLjcxMTcgMi4xMzUgMCA0LjU4My0uNjI1OCA3LjM0NC0xLjg3NzMgMS4wNjcgMS4xMDQyIDEuNzQ4IDIuNTU4MiAyLjA0MyA0LjM2MTktMi45NDUgMi4wOTgyLTYuNDc5IDMuMTQ3My0xMC42MDEgMy4xNDczLTMuOTAyIDAtNi44NjUtMS4xOTY0LTguODktMy41ODktMS45ODgtMi40Mjk0LTIuOTgxLTYuMDE4NC0yLjk4MS0xMC43NjY5IDAtMi4yMDg2LjI1Ny00LjE5NjMuNzczLTUuOTYzMi41MTUtMS44MDM2IDEuMjY5LTMuMzMxMiAyLjI2My00LjU4MjguOTk0LTEuMjg4MyAyLjIwOS0yLjI4MjIgMy42NDQtMi45ODE2IDEuNDM2LS42OTk0IDMuMDc0LTEuMDQ5MSA0LjkxNS0xLjA0OTEgMS44NzcgMCAzLjUzMy4yOTQ1IDQuOTY5Ljg4MzUgMS40MzYuNTUyMSAyLjY1IDEuMzYxOSAzLjY0NCAyLjQyOTQuOTk0IDEuMDMwNyAxLjczIDIuMjYzOCAyLjIwOSAzLjY5OTQuNTE1IDEuNDM1Ni43NzMgMyAuNzczIDQuNjkzMyAwIC45MjAyLS4wNTYgMS44MDM2LS4xNjYgMi42NTAzLS4xMS44MDk4LS4yNTggMS42MTk2LS40NDIgMi40Mjk0em0tMTAuNjU2LTExLjU5NTFjLTIuODcxIDAtNC40MTcgMi4xNzE4LTQuNjM4IDYuNTE1NGg5LjE2NXYtLjY2MjZjMC0xLjc2NjktLjM2OC0zLjE4NDEtMS4xMDQtNC4yNTE1LS43MzYtMS4wNjc1LTEuODc3LTEuNjAxMy0zLjQyMy0xLjYwMTN6Ii8+PHBhdGggZD0ibTE4Mi4wMzMgMjQuNTE1M3YxMi4wMzY4YzAgMi4zNTU5LjM4NiA0LjEwNDMgMS4xNTkgNS4yNDU0LTEuMTc4IDEuMDMwNy0yLjU5NSAxLjU0NjEtNC4yNTEgMS41NDYxLTEuNTgzIDAtMi42NjktLjM0OTctMy4yNTgtMS4wNDkxLS41ODktLjczNjItLjg4NC0xLjg3NzMtLjg4NC0zLjQyMzN2LTEyLjg2NTFjMC0xLjY1NjQtLjIwMi0yLjgxNTktLjYwNy0zLjQ3ODVzLTEuMTU5LS45OTM5LTIuMjY0LS45OTM5Yy0xLjk1MSAwLTMuNzczLjg4MzUtNS40NjYgMi42NTA0djE4Ljc3M2MtLjU1Mi4xMTA0LTEuMTQxLjE4NC0xLjc2Ny4yMjA4LS41ODkuMDM2OC0xLjE5Ni4wNTUyLTEuODIyLjA1NTJzLTEuMjUxLS4wMTg0LTEuODc3LS4wNTUyYy0uNTg5LS4wMzY4LTEuMTYtLjExMDQtMS43MTItLjIyMDh2LTI3LjMzMTNsLjMzMS0uMzg2NWgyLjc2MWMyLjA2MiAwIDMuMzUgMS4xMDQzIDMuODY1IDMuMzEyOCAyLjY4Ny0yLjMxOSA1LjM1Ni0zLjQ3ODUgOC4wMDYtMy40Nzg1IDIuNjUxIDAgNC42MDIuODY1MSA1Ljg1MyAyLjU5NTEgMS4yODggMS42OTMzIDEuOTMzIDMuOTc1NSAxLjkzMyA2Ljg0NjZ6Ii8+PHBhdGggZD0ibTE4Ny44MjUgNDEuMDI0NWMuMDM2LS44MDk4LjI1Ny0xLjY5MzIuNjYyLTIuNjUwMy40NDItLjk5MzguOTM5LTEuNzY2OCAxLjQ5MS0yLjMxOSAyLjkwOCAxLjU4MjggNS40NjYgMi4zNzQzIDcuNjc1IDIuMzc0MyAxLjIxNCAwIDIuMTktLjIzOTMgMi45MjYtLjcxNzguNzczLS40Nzg2IDEuMTYtMS4xMjI3IDEuMTYtMS45MzI2IDAtMS4yODgzLS45OTQtMi4zMTktMi45ODItMy4wOTJsLTMuMDkyLTEuMTU5NWMtNC42MzgtMS42OTMyLTYuOTU3LTQuMzk4OC02Ljk1Ny04LjExNjYgMC0xLjMyNTEuMjM5LTIuNTAzLjcxOC0zLjUzMzcuNTE1LTEuMDY3NSAxLjIxNC0xLjk2OTMgMi4wOTgtMi43MDU1LjkyLS43NzMgMi4wMDYtMS4zNjIgMy4yNTgtMS43NjY5IDEuMjUxLS40MDQ5IDIuNjUtLjYwNzQgNC4xOTYtLjYwNzQuNjk5IDAgMS40NzIuMDU1MyAyLjMxOS4xNjU3Ljg4My4xMTA0IDEuNzY3LjI3NjEgMi42NS40OTY5Ljg4NC4xODQxIDEuNzMuNDA0OSAyLjU0LjY2MjZzMS41MDkuNTMzNyAyLjA5OC44MjgyYzAgLjkyMDMtLjE4NCAxLjg3NzMtLjU1MiAyLjg3MTJzLS44NjUgMS43My0xLjQ5MSAyLjIwODZjLTIuOTA4LTEuMjg4NC01LjQyOS0xLjkzMjUtNy41NjQtMS45MzI1LS45NTcgMC0xLjcxMi4yMzkyLTIuMjY0LjcxNzgtLjU1Mi40NDE3LS44MjggMS4wMzA2LS44MjggMS43NjY4IDAgMS4xNDExLjkyIDIuMDQzIDIuNzYxIDIuNzA1NWwzLjM2OCAxLjIxNDhjMi40MjkuODQ2NiA0LjIzMyAyLjAwNjEgNS40MTEgMy40Nzg1czEuNzY3IDMuMTg0IDEuNzY3IDUuMTM1YzAgMi42MTM1LS45NzYgNC43MTE2LTIuOTI3IDYuMjk0NC0xLjk1MSAxLjU0NjEtNC43NDggMi4zMTkxLTguMzkyIDIuMzE5MS0zLjU3MSAwLTYuOTIxLS45MDE5LTEwLjA0OS0yLjcwNTZ6Ii8+PHBhdGggZD0ibTIzNi4yMTYgMzEuNTgyOGgtMTUuMjM5Yy4xMTEgMi4wMjQ2LjU3MSAzLjYyNTggMS4zOCA0LjgwMzcuODQ3IDEuMTQxMSAyLjMwMSAxLjcxMTcgNC4zNjIgMS43MTE3IDIuMTM1IDAgNC41ODMtLjYyNTggNy4zNDQtMS44NzczIDEuMDY3IDEuMTA0MiAxLjc0OCAyLjU1ODIgMi4wNDMgNC4zNjE5LTIuOTQ1IDIuMDk4Mi02LjQ3OSAzLjE0NzMtMTAuNjAxIDMuMTQ3My0zLjkwMiAwLTYuODY1LTEuMTk2NC04Ljg5LTMuNTg5LTEuOTg4LTIuNDI5NC0yLjk4MS02LjAxODQtMi45ODEtMTAuNzY2OSAwLTIuMjA4Ni4yNTctNC4xOTYzLjc3My01Ljk2MzIuNTE1LTEuODAzNiAxLjI2OS0zLjMzMTIgMi4yNjMtNC41ODI4Ljk5NC0xLjI4ODMgMi4yMDktMi4yODIyIDMuNjQ1LTIuOTgxNiAxLjQzNS0uNjk5NCAzLjA3My0xLjA0OTEgNC45MTQtMS4wNDkxIDEuODc3IDAgMy41MzMuMjk0NSA0Ljk2OS44ODM1IDEuNDM2LjU1MjEgMi42NSAxLjM2MTkgMy42NDQgMi40Mjk0Ljk5NCAxLjAzMDcgMS43MyAyLjI2MzggMi4yMDkgMy42OTk0LjUxNSAxLjQzNTYuNzczIDMgLjc3MyA0LjY5MzMgMCAuOTIwMi0uMDU1IDEuODAzNi0uMTY2IDIuNjUwMy0uMTEuODA5OC0uMjU4IDEuNjE5Ni0uNDQyIDIuNDI5NHptLTEwLjY1Ni0xMS41OTUxYy0yLjg3MSAwLTQuNDE3IDIuMTcxOC00LjYzOCA2LjUxNTRoOS4xNjZ2LS42NjI2YzAtMS43NjY5LS4zNjktMy4xODQxLTEuMTA1LTQuMjUxNS0uNzM2LTEuMDY3NS0xLjg3Ny0xLjYwMTMtMy40MjMtMS42MDEzeiIvPjxwYXRoIGQ9Im0yNDQuNzc3IDUwLjY4NzF2LTUwLjUyMTQ1NWMuNTUyLS4xMTA0Mjk5IDEuMTc4LS4xNjU2NDUgMS44NzgtLjE2NTY0NS43MzYgMCAxLjQxNy4wNTUyMTUxIDIuMDQyLjE2NTY0NXY1MC41MjE0NTVjLS42MjUuMTEwNC0xLjMwNi4xNjU3LTIuMDQyLjE2NTctLjcgMC0xLjMyNi0uMDU1My0xLjg3OC0uMTY1N3oiLz48L2c+PC9zdmc+;" vertex="1" parent="1">
          <mxGeometry x="710" y="100" width="89.29" height="20" as="geometry" />
        </mxCell>
        <mxCell id="m3Fp8r4ad19MvM2iiD0p-9" value="" style="shape=image;verticalLabelPosition=bottom;labelBackgroundColor=default;verticalAlign=top;aspect=fixed;imageAspect=0;image=data:image/png,iVBORw0KGgoAAAANSUhEUgAAADAAAAAwCAYAAABXAvmHAAAABmJLR0QA/wD/AP+gvaeTAAAHFklEQVRoge1ZX2wcxRn/zezO3u3d2b64NnbsxESYxnUgjikNIuShFUE1LRCkoDykolXpQ+mfJ54qtalIooCQKkGfSssL5QFR1aYIJYXYSRM3oKZFRS1JSSC0iRPspDHxn/ju9vbfzPTBvr292LO757hP5CdZmrn5/s5+8833jYGbuInPN8hyGbc8tdNcnb32EDXJNs5IL1JkjUzTL8g0zQpKKBioZJQAAPGEhAdBheTEFhaxxRQcOU5deQYuP0ILpbcGXzhR/r86sOuX29qckvYDYWoPi0atV+S1LLRl+19rBJegM35Jm+VnUBAHUz7/9WvP/ulKIt44gu17tnfojd5Bdy3rh05XxuI4o1wh9YvOB/nLcvvLz498GkkbtfjoT765ET3a3/gqzVxqnRYFtM9caNM+6BwHvcZBCxzElyCuANwFQgOQBoXUCUSjFvzxZh281YDI0SX102nPznxYuO93zx//h8pGPdK7LnnIDxmvXfXBPnWgjzvQL3sgZRHFXoUNEJvPy5j2Fy1Lk8JfzeB1puB3pcBb5s0SzSztdGWHAbQBkEuJ1lQ6d+wd+LZ3e/o7AEA4kPvjNDLH58AuONBm5nd5pUB8CW2Gg110kDplQZv24XWbAAFEXs/2dXZePn3i/PtL8S797QBIkzxeGadOlsDOOXUb1vS9PpTva6ibz/jERupDK5iLZv1xFW2EA7SnMtbH6ze+4Vsb0PrFW2FvzsG+O1c3Pxur6pQ5eruKTukADNJUGZJSwlivsN7bjls23hbMy1tz8LtSdckgFg/GIkWyKjqlAyJFMoEwO7kDtDmN1Q/3g4QTHCEoDuQh0+r9WiQnrNPUlN6rJTIaZChiJz+wTbvuANPYot9lhqK8Jfl5COuUOlEmG/UZYNUtJCKZA1p3Hs1rVivXnY0Z8FWRmTsA4WEH1HaqHaCk6gBP5kDjg921obPIKsDpV4ZzLXhorBOlUHUIhXkS2E9yDPmOtlg6t9eENBJUJDL0BdT2RzjgV+NGsniFxuY2aFQZqlVjGIG/xkhAVzWNeOoYVseWV/2IYWEqZHrid78CL0FKlWEfPclVdGrLPBEULSIT70C6JXmG4bfEfwFhVr8m8eTiAmoB6i9giUIgLB8fGroRb1QgLxsfkiJfzVbU5nMqOqUDxBbnlxKmgq4lS48AIM34DQlvGrWqtlwPtQNlebIy9tvjd5dEZIrlIKyTOvKfKjp1CLnuwUBYh4G45s33lWG6CPGlCQHvDN3mjve2ilLpwNC+Y2/S0vxBlmkCv2NxeRCGUyzFGFWF9lm0s7ydQaTmTaNFwYf2HXtTRRuZXuikd7YydnvSkUqt8anI9TDiynO3p9rB6lfdj6JoIx3Qi/6rgdD1JqSuDqPikQuQMsGVLQDjrK1clhqBs766WXROvKokRowDQ+Lwc9ocdwFApincDRklrZy0MPPfyShxAADjjAVaUt5L86XGwr2jFbh35zH3F1Hyom+oPRDaJe9QZWp/JQsZ8RY0O/gvcKE2jtgCmRMF5Tooqene9An3rT2jo5EHJvaK1bj7I2oLAQCiQYPzZXU1KS5bmBj+ICj+PO6hLdMyP5ES2eHZyO7O3pQJ8j+1haDc+3GcfbEODO4+OsHOO0OBknty4BEXm3t8ApMfjwEAmlIm7mr9EgDA/Guxps+9HqJBg31vtRxhY/bg4O6jEzfsAAC4Y8YTdIY7ACB1AuvBPGTEI93cK6cwefYC+lq60d/ag/R7BaTfK6oVEKA0kA/KbDrDnSnH/W4S2xI5cOClA1Z6zH4CC42N38Zg3d8UyTP38kl0N65Fe6YV5okI4wFYWxvhdy7cvAJg/3GeHN0zqk5VISTusn+/7/Br7N/OSGXu3mHCvqf+55Lr4WzKwrm7eq7YJ/bI68+MvJKUP/kzAYA37EPf0C+6Y5V5eUsDylsb6xFRA6cvA+urVX593B3fdMh+qB4ZdVdgO58aaHY3sDHeogcnLv1+Eea7RSTqPRdgb87VvNppV/2CcdpbN/jC8HQ99iyrhHz0Z19fi3XsNG9hQQzp4w6yb18DtdT3AABIg8Da1gR3fbVc0KZ8yxhz7xzcP6Ism1VYdg28c//9nW6LeYq3sVWV32iRI3N4FuyiuySP385QGsjX9Bf6FW+aXS33JUmZS+GGivhHvv9IRu/1/+6tS/WGf2cfl5F9Zy64tIRJUd7aAHeDWfPaoZ93TvOP9M0HXjpgYZlYkS7ksf0DLzrr00+ChazzJdKnLEgxf1gRftnwpEydtX/z+u7hH96o7hVrox77+QN3iRZjyOsyboui0y55V9glb8fQMyN/WQm9K/4/rx17H3jav9X8qWjSavpQeo27+oXys394+sjeldQX313XiTOj5/68a7bjuamcbIJG+mhZeMY551f9b1hfe/G3R4+ttL6buInPO/4HpfWg0lICeAQAAAAASUVORK5CYII=;" vertex="1" parent="1">
          <mxGeometry x="736.29" y="204" width="48" height="48" as="geometry" />
        </mxCell>
        <mxCell id="m3Fp8r4ad19MvM2iiD0p-10" value="" style="shape=image;verticalLabelPosition=bottom;labelBackgroundColor=default;verticalAlign=top;aspect=fixed;imageAspect=0;image=data:image/png,iVBORw0KGgoAAAANSUhEUgAAADIAAAAyCAYAAAAeP4ixAAAABmJLR0QA/wD/AP+gvaeTAAABOElEQVRoge2WQU4DMQxFHy2IPdepOErLCnEbxBqJ08AZqqpIcI6uyiapyjCVEo+dmNZP8mIWdvyT+E8gCAIPzIA3YAfshbEDXlOtbqyQCxjGsnHvB+bAJjWxmlAnb8YncK3QVzUPSg1obYiYZ/SuVY51UwVHvBQ2WBNFaLvMLfDdQ4iFyzy2FmLlMjfAV0shuYFtEiVlnmocb8hTTSMDqoWsR5KmRnaZOyshVycSLMhr7QffpQz7+pXf9d2iSZdffUL15C/uRKbeZ/OaZ3MiIcQbpTNi8W8J1xqjp2upcjYnEkKMWAD3ksSerjXGjPp5hBNJrZ7xWvUAf1dLjDch4hnxJqTLjCzSwu+Va7mbEfHuWRCu5Y0pQsQOY8F/nZE/BtNjRkyIGfFGCPHGmJAPg3VKnzFBEBjxA9Ny9SbY0UbZAAAAAElFTkSuQmCC;" vertex="1" parent="1">
          <mxGeometry x="210" y="10" width="50" height="50" as="geometry" />
        </mxCell>
        <mxCell id="m3Fp8r4ad19MvM2iiD0p-12" value="" style="shape=image;verticalLabelPosition=bottom;labelBackgroundColor=default;verticalAlign=top;aspect=fixed;imageAspect=0;image=data:image/png,iVBORw0KGgoAAAANSUhEUgAAADAAAAAwCAYAAABXAvmHAAAABmJLR0QA/wD/AP+gvaeTAAAJAUlEQVRoge2Za4xdVRXHf/uc+zqvO+8OnZl2GCigIGAY+rKiNT5KgQ8YCIHGVB6B4BcsiYCJMUI0YqsRxSCmQTEm2qAGFJSCIcKX0nYaQCUEoxScMtPOe6b3nnPuPfc8th/uzDBn7rl3bmn9YNJ/Mpnss9de+7/22Wv/174HzuIszuL/GuJ/4fS9rVtz2YqzEylul8jLgZKEl4Xk8d5DR146k3Od0QCODg62aBnlVgn3Az3JVvIfQojHvIzxq4FXXimf7pxnJICxDRsGQkXuQnAHimIINYX0KysNG0eIn8mAn/QNDU1/2LlPK4DjmwaviIS6SyBvAVILz9sf3kM4dgLn2T8SToyT27iJ9IUXUfjZT5PceBLxW0UqD/ccOvT2qXI45QAkiOOb1n8WwVeB65JstC9so+3Bb1cbYQiqSvGJvRR/8UQj1xHwVySP9h468lyzfJoO4K1LLsm05I2bBfIB4OIaR5qOtnUr2tXXkB28EhQl1h+MjuA+/XvcPz1HVCyuNN0bEvGjsUq478rXXvNPK4DpjRvznhLdJuE+oLehM8NA7ehEaWtDaW0lf9fdpAbOo3zwAP7bbxOdPEk4Pob36gFkECyOkwBSIkScjoATUoi9kVQfXXPw4MwpBXBi06ZzI8J7EdwBGABqZxfqmjWobW1Etk04OkowOlI3oMzlH6fjkUcZv/46okKhpj+IImZslxnHZSwI6chmOL8tj55Oxw0lTiTlU0Iqu/uGhv7VMIDjWzZcKSN5H3ADoKIo6Fdvx7h5B+l1F9SSGB3B/cMzOL97ClmpPXlym7dQPnhgCRdwyh7TTomTbmnx+STVJBCAmVLpN3VWW2Y8DilxKsGrF73+ty2JAby34YoXMqq6bekz69bbse66u4bYcrjPPcvcw99pbFPxOTY9SyUIa/oWAlhKrN/QuaC9JWZXCQIGjryxyDuWaUKIGHkA78hQw20CEI6PU3rpLw1tAPRMmnWrOjmnxSKjqrE+Of8/IwRrdY1Pr+6OkQ+iiLGTRf49HpeM2Bt4eeBc2Z23yGvZWEKJVIrs5i1k168ntWYtSksrkV0kHB2hfPgw3sEDSM9rSF6kUqCqi3ZSSuyyx7Tj4no+Xkplbd6gQ9Ni4zw/YMp2mHFKSFkNc/vIyCK5WAD7+/okQEZVaTd1OkwDVTk1qVBMC7Wvl1RPL6mB86p/Pb0Iy2Tq9i83c4QCUPJ9poouc+4HxOdR2T4ykl1opJaNC4BUJQwZO1lksmDTZup0mQbplEo9ZDdsxPzSTtLnr0Npa6s1kJLpe+9ZkbwE7FKZ8aKD69UpRaQcWtpcHsAwcP5CI5SSqaLDtO1i5bKssgz0bKbGpzd0mODoUfTrv4hxw40orfEgnGeexhs6XJ+4hDm3xETRxvODemZvCfhuYXT0qaUPY/vjz6tX96uq+g0JO4EsCTAyaTotg7yWqxEeAJHOkLvqKoybd5D52KWEx48zsXMH0nVrbIMwYtpxmS46BFFU0w/VxO/Km1jZ7FwlCPZV1Mw3P7qk+IsxeH/z5l5kcH8YRnfOOI42ZTuEkaz1CmRSKp2mQbupoyQEAlUhk56H/894jeYFIdO2w4ztEslk/0Y2Q9f8Qi2FH4TeuUdeX3wYm/k/GwcLaUWxFtqhlMzaLpMFG7/OCilC0G7qdFkGabV+nkDDxIwR786bmLnaDSClZMYpcdmbby3yjuVAqeJb6SUDVSHotKqrPGO7TBYd/DAuQtFinji06hpdpkEu80EpIKWkUPaYbJSYgKXl6M6b6Jl0TV8kJbNOicmiXSOCsQCGJ2cwclm6TB1ryatT5gPptAxmHZfJgkM5iCeblDDrlJh1SmTTKbKqiqSqvmGdtycAU8txTt5ESyDeTI7EApCAXfawyx5aJk2nadBmxIWlzdBpNXSKpTITBRu3Ulvten7Q6DSZ96OxyjLJppcfhFAJwqp4JeeIXTcAwGG+8ixVfN6fmWNsrkC7ZdBp6qjzNb4A8lqOvJbDqfhMFGyKpZWvt0JAu6GzKm8m5stKOSJgLpLyoWXPPsD+vr7fALckTa4ogjZdo9MyyKZqV61U8ZmyHebccs3kiiKqxC2TlBq/6CyI10TRwamTI6qq+FpK3VeW4p7Pv/vuyboBALzQ3/+ZtCIeqfjB5UnOBNWE67IMjCRR8wPm3BJlP0ARAj2boVXPLb69ReJNiFdKURZzTxGCShjNlLzKnov//ubuxACGN62/U4XdQtBW9n0mi8krugAtXRW1Vj1Z1JKwcImZsh2CMDkxM6pKp2XQYeo1fsMokmsPv7a4GrHeYxsHI1WJV2+VMGSq2Fh0min+mhGvTEqlyzJpN7TEBXG8CmMFm0+9czS5Gh36yIWyO2/V7FOortx00WGy6NQloM7v9VZdI5tOEUURpYrPjFui4JZJHgW5dJouqzpuOXEJFErlmI40LKeFgFa9qqy5hCOuGXVuFvXKBWiYI9H2kZHFI6yGYVWQXGYdFzNB1JpR59Mh3kSOnFjaWB7AFNC50FgQtVwmTYehx/ZmM+q8HJaWo7teSb5yjgTAvkjK2MU7toWe7+29UQixBxhI8pBSFDqWidoCJFBwy0wWa9W5Vc+xKm8lbskmCjwPIX6pKMrubcPD7y3vrEn1B0HZ0NNzrVCUbwGDSR6FELTqGqssI7EU8IIAzw9BVO8PScHapTKTtotdrnuXdoCfSym/f81o/V8VGh7eL/T0fE4qykPAJ+oNtrQcnaaeWP4ux0JiThbsRtutCDwpVPV7Vw8Pn6hntJTDiti/du0nZRQ9IODaemPqFX9QLYdnbJeJol1XvKjm32Ohovz4umPHZpvhRT0y9bC/r+8y4GtU66XavQOkVZUWPUc2lSKSkpJXoVD26moHMAE8LnO5H17zzju1vz+ugA/1feDF/v6BKAx3AXcBtWdhcxgW8EgB9t40MlJa2TwZp/WB46WBgW7f978C7AJaVrKfx1FgT1d395Mr/XTeDM7IJ6bn163LK+XybRK+DpxTx+xNKeUP7NHRX98Ep6Z8DXBGP/K92N1tROn0HQJ2SLgUKCHlAQF7t42OPi+oWw6dxVmcxYfEfwFg0EDFaE/8fQAAAABJRU5ErkJggg==;" vertex="1" parent="1">
          <mxGeometry x="735.29" y="136" width="48" height="48" as="geometry" />
        </mxCell>
        <mxCell id="m3Fp8r4ad19MvM2iiD0p-14" value="" style="shape=image;verticalLabelPosition=bottom;labelBackgroundColor=default;verticalAlign=top;aspect=fixed;imageAspect=0;image=data:image/png,iVBORw0KGgoAAAANSUhEUgAAADAAAAAwCAYAAABXAvmHAAAABmJLR0QA/wD/AP+gvaeTAAAEbklEQVRoge2Yv47kRBDGf+VbIQLESiAhHXez4SZsRkTCC4yIeYPNSXiAy+4NmBcgJCUkJNkQNkBkswiRHBuR7NhF4G53VXXbFsfq4CSXZHnabo+/r76v+o9hiy222GKLfxGSf+z3+z1wAJ6pKgCqiv29dn5Dfe9U9frm5uZ7gLOJicg3+09fPHv6/iUd0KnQKXSJpQCihjGg+SzjbwUGgW9//JrfXt26TD398BO++PwlvUAP41k0neE0HcpJ4MH8Pgk8oJw6+PP3n57/+t1XB+DCEQCef3R+iWZUKIgUlAmobVvwmZACX372kkFgSIR6NJ1ztnwSwl9WbRvvfXwFsMvts1YnDYd9r0rdt/WMe74BWEWbwGevTSr7Hmetzu6Q0TpLWbF9FS2Wyu0ZcAjNe/W1mmyOzgOpX55tsPaioQE2JmJWHZPdomhNvJWEhgKKiqA6gupUGRBEShFXJAzZKvupPd2bIRLvxQTZfvMEhBF4ancps6I6JkqE8LwhHYDaDJp7431dJRJVt/8zS2AASFlXEQZS1iUPo1oTiC8SC9QAl5pIvjZQH06VQGieQLLJIIAqEqwjCX0mUUkdrJRBDo6Iz36xlr1u/a+m7zgcryrwRNvWEYs6h1NAq6wPjohWilTZt89EVVYtlCtUoGtYRzAypNw7FZbAh+u+nxqgWqniyC4qECacDl8DY8J9DqKNJnARvGiTSNWOdWKJSRlgmgT6zFyhS+eigiURwFsbhSLO4Hupgffxnpl3JsJCpeaCAgoqEyBpHK2IE1VRQYMKBnwC2WPbc/43ZIIDvAJpFBkHIfHZlxUChoQt1jgauZVout4nYIVMAdyb59YVSC/sKETGQ2YV8EWsq7VgwfcWvAVMIkq8pys1kLJceV+08n+TgFXBZF9zBhvgewuQYhe7X7AW65cU6Kfs19b5pwTa2VejQgHfTwRLu5AIFlsicJJx/O9kvoDF1NC0mrQEggq58KpMBvDT7gw4Me7G+khCzKaorcDo/IEwkWWcSRoxmScBtiTKWK5OhclG1iYBvKsR2za2mlcA6JLfx71wKd5spxituWBIS4pqCEXdSJRtNWW+ApuUwqswT0DKJn48a7BQezkN7QWan9D8ZJYzPwTweRNfZZ5iuwUCSocgsQ6m7GuiEbKfLrYI6IyNMiFrkwK8fJHoA5lTSGBDgbaFLPAY0zrdeL85F1Bm58omJvO2gO2nlnx/hUDbQp6A16A1hPpirpcVLrNgCKgBHogmMgsElC4tIaYPWmbkKdDLn6zNA/bDgLdRLFZvI6uG/eiV56oFBdpLCKtcrIGawMxaKBMI66CWjWor6UTinTkCf736hXc/uDTFq9VM3IrWpsbtvDALNAvcEgqjkSXzYMDr3c/u3Y7AHz+8GIH8zz7uosoZ8CRfM5jlcDjEbeZrx/F45Pb2lvv7+wqkiHB+fs7V1RUXFxeP9cr2t9HXjd1ux263W+/4iNEBd2/0jY8bx05Ernk7SRxV9fq/BrHFFlts8ZbH351enife6/9zAAAAAElFTkSuQmCC;" vertex="1" parent="1">
          <mxGeometry x="60" y="170" width="48" height="48" as="geometry" />
        </mxCell>
        <mxCell id="m3Fp8r4ad19MvM2iiD0p-15" value="" style="shape=image;verticalLabelPosition=bottom;labelBackgroundColor=default;verticalAlign=top;aspect=fixed;imageAspect=0;image=data:image/png,iVBORw0KGgoAAAANSUhEUgAAAFsAAABbCAYAAAAcNvmZAAAABmJLR0QA/wD/AP+gvaeTAAAYgklEQVR4nO2de3xV5ZX3v2ufS0LCVcJdFOSlXHMSlNaqY1W0Wh1rW2uQnAiDShKsrc7M2850Ok5NL3bGsZ23Y0VIgmApJEA61k5bdbzUS70iAjmHcC1euINcQgi5nHP2XvPH3ic5hJNkn8NB+3k/+X3gk73PXs961ll59rPWs9Z6nkAf+tCHPvShD33oQx/60IdMQz5tAXrDnMUbx4l4RoHm4ZE80DxUTBGaAQQ9Zpmyz6fW7t2Hjh96peKa2Kctc3f4i1L23BX1uWa7XIVyHWghGJeDZqXAokVgkyLviuo6i8jzteUzj5wzgVPEp67skkd3DtR+bUWoBoErgFSU2xtMhDfEkv82vdHa1XdfvD+DvFPGp6bsYHXoElTvB/k6kNPlsQXsBS4AQFgk6EpMb5NHoydaLZ/p62fmmDHL6zW8w1R1BKoTQababwTTAaMLzyjC06osqi0LvHquv18yfOLKDi7d9Dks+ReQv+7S/zGU3wLP+v3mC5GY935UKwC86rlwRfm03a77eDw0xPDqlRbcgshXUYZ2IXkXNf6xpnz6y2f/jdzjE1P2vMWbxsS8xv9DKUr4WAWesZSlsSGeZ+pmT4vEHwSrwr8G/TrIkZqy/GHp9nt1xcveMaPyZlmiCwVuATwJj5/1GPoPv1pQsDld/qngnCu7aO1aj69x0jdBfggMdD6OKaxAeaS2PLAtWbuSqtAWhSkKr9SWBa7JhCzBZaGLMPV+VMrptA0R4Ef79x/9t3PtyZxTZRdXh0eIWrUgicr6rSrf7U7JAKhKsDrcAmQLVK4qCyzMpFxzq+vHm2r8BPR2OnXwrirzBhDZVVU+M5rJ/uI4Z8ourgpdJVALjHI+2q/KvbXlgad7azvvsa1DY/7oEQCFB2vLAj88FzIGl4S+gLAc4SIAUSwVDCAqsMFSnhaTyppvBI5nor+uFjsjKKms/xuBF4krWvUpYkx3o2gA02uN6LhRDp0LGQEsNXeL0NjRlXTow6dwqQj/ipdtcyrDf52J/jKu7JLq+r9VkeWAF4gpcl9NecHXUxodhuYmXDdlWkawV6aGx/O2wsUAXo/B+UP7MWXsQCaM7E//bG+cdLgh+nSwOnzr2fbp7Z3EPYJVoQdU+ZFze1ItnV27MPBcqnwsjWWJ2ONAMNozKSNARYUaOzzhtcAIgPHD+1M4fgh+X+fYU+D9g81s2HUMS9WL6vJ5lQ3rU3FBuyJjI7u4sn4BdCj6OMI1tQsLUlY0gKhhdF6jmZAvETvHbC4CPgswbnh/PvuZoacpGmxjNmFkfy6d2OGiD4yK+cDZ9JsRZRcvqf+SiCx2bhstS66vKQ28ly4/MYzWjhvVfmcrX1dYdmgAjyEUjh/co5dwwfBchg2yvUSBYFnlel+6/aY9jcxZFh5rxKwr1JApmPyjwyui8NXVC/PXp8sXAEtOxYeBGvQ/K15JIPB5gNHn9SPL5+mNnLFDc/n4RDtAbpPHOx3YmE6/KSu7ZEnDVAzz3zWmN4GIWHQ4kIK0K3pV0dqGtxJXg6nCktbDgh8AVUamyycZKirU2EF4GEBulruvn5vd+QsxLKPr0t81UppGSqrDt6thvqfQNa4BgKIDBH7gazTfLK5cn5euULVllxwF4lPJ+enySYaKCrHAjoW3RS1XbRLp1OJUun27VnbJkvprVXUlkC0ijB/Rn1n5I/jK587nxktGc+nEoQzo1zGdXSKG/9m05zcRRdkNIDAhLR49QGETwMHGVizt3f7uO9ZpQhDjM+n260rZ85d/kK2GLAW8HkP4wtRhfG7iUIYNyibb72FgPx/jRvTnhhmjGH2eY8+Umack69vpCoaIHRwSCtLm0R1r9L8A2iIm2/ee7JH28Ik29h9rSRDL+sldT2wbkE6/rpQdjZy8FRgHEBg/hJFDkjsIHkO4bNIwcvz2HKfo/UVrG/zpCKZoyLkYWlJdn9GppL9GqxX2AYR2H2fHgZNJ/ctDJ9p4Y+vHoPF/AIxutyLfS6dfV8pWkS8D+H0GE4bn9kjr9Qj/Z3Q8uMcIT6M1Mx3BsHRd57V8IS0e3aCqfGaLR+QOIILCxl3HeGHjAbbuaWLPkRZ27G/i1YbDvBo+RCRmz9cCD4HsBFDlW3MX1w9PtV+Xc7ZOBRiS68fj6b3JsIGdmS0POi1VoQBipvd1IAqghlxTVrneV7R2be9+mkusLM1/RS39CnAc4PipCKGPjvPmto/Z+P5xDh5vjQ9lC5GKmtL874P1fad5rmUYKU+Rbg2kF8BjuCP3GAmOStyHSxXDGlpF5M8AqM5vFn/E1zi5JVgZ2hCsrv/e/OUbB6fFNwG1Cwuei0Y9U4HHcJSegHZUficYn68pzf8BIhodvL2uY3SLlhUtakhpDeBOe8IBgBMt7lznE6cS6FQ+SkUgsINEvhOT31bVKc5HcYfYjzADlYciUe/OTETj6u6ddrCmLPCt6OBtwyzTHK9wtaF6STTqyaspz79lVdn0dztoZ882Ef2pczvI6zVLUunLlVevymsC155qi3HgeCujujGQYFuRXQc7LHzUMK113RInwbzKhgtiYr6J2uHZHL+H8/Ny6Zdl0Nwa41BjG81tMUDzDOG3werw7JrS/KdS6SMZ6mbPNoEPnf/dor8VWdks/p8CAwzhTqDSbR+ukgcl1fXnq8r7gC8ny8O1gVHkZCWfPt/ZfpQPP262bwyerlkQ+JpbYVCV4NLwGyiXAUwZO5DpFwzGkAQxFXYd6ojGAZz0qmf6ivJpu8sq1+e0aPZENXQs6CgVGQ2MQHUgSDboIAWvQCyBXYsoR9XQY4YaRy3Rg6Afacx63xy6c4/zSzgNwcrQMmxFYxieiSsXTPuzm6/nOlMTrAw9hnAvQD+/h8JxQxg7LAdxFHGyNcrWvU18cKg5US9bY1HPrLp7px1000dJVfhrij4FMGnMQArHD+mWdvfhU7y140j8S+xWJYYwjszG6KMo74NuQmSjimyQqK7HYxQi1h9tEvlOTVn+T3tmY8N1bEQNBoljnlsjJm/tOMK6XQYDsj1EYxan2k8bABZgCEzx+azXiivXX+6mMknVugMR/F6D/At7tn8XDM8lvLuR5rYYChf0MGxMoMkZwe0IxwE/Si6AClkCQ4HsJG19CJNAJgG3iyp4sbDXABHAj1hfAjKrbFE7UobwPsr5gN80LRpPnRFf2KIWC8TD39llCzpRxPf0/OUfXPfknePbeunlswAjB2ef7tF0g7F5OWzd2+TIp++owTtqyRYx2GOYxr52Uw7VfWPqIUR6XZPPXVGfK63eoRFio8TgIlGZgB0qmAbk0/nLMJxCIBsqs255YtuA/757cs9LUVwqu2jZhmHEnBiFpb8y8FVaEpsndkrpQkVbEGOXWNRNPDD9xYoKsYrWrl3nb5ycYwet5IpI9ORS4I4eOxK7mCbb724M5A3MBmxlWwbfqy0t+OMZRPe6YsWv5hWcAk4Bu4F3Ep9dXfGyd9SYvKmgl4jFlYjOArkwLnWO1V4I/Km3Plx9K3/Md6miAqCG8cbK0qkHgId7alM3e7ZZtKhhjtdnvi5QAJSUVIaeWVUeqOm+lbSB5rRGzrBJSdEe7aTzWJ2J20zDqScJOf+XAwSrNs8BqxZALJmKC2W7W66rzui4NqINboWsu3das5rmV3GGnwq/mPPEhtFd6YJLNk4sqQqtQfU8gP3HWzDN3sOfCQGithyi3dehnANIW9YzOPESMewVdm9wpWwRxjiXp1bfNeNAKkKtvmfGh6r6f53b8wzL+0j8WdGihpElVaElGJ4GhdlxI2eaSsPeEz3yPdzYzr6j8dCn/KGqfGZLjw0yjFX3TWwSccosLGO8mzbuRjYd2ZJdboxNV9SWFyzFriMBZc4dSzYXBCtDRT6/uVmhHHDi3vpHwV5xbtvTxJY9J5LGm/d83MJrWw7FYxdRw5IfnUH0CUDtSlsQvbAXUsC9NzLaYX4sPbEA4bso7wKGZVj/A4zoCFoKr1kq/7S6LPDmHZX1F6vIawq54Y8a+eBQM2PzcsjN9hGJWhxsbOXwiU6nRpUHVi6cXp+2XGcBVfY7L+N5bujdLgCGAQjpG6Ga0sB7qvqGcxuveDouqvNrSgNXrS7LfxNgZXnBBhG9Dux4THNbjK17m1j/56OEPjp+mqIBDBFXo+pcwKAjRdb96ut0eleIj8G082/B6lCZGHJZAsddIhpYVV7wy660q0oL3pa2fpMFfgjaNZB1Qi2qgQabjX6juDrcs0t5jqAQLyBylf5zOY1IDBRxyTQR85d/kB2NnKxWtX1sFVQUUSG7ZkFgH6XJ2626b2IT8CDwYMmjOwda/drGqRE9Et+qcXtleIJH9D1gkKg+XlwdDtWW5odSle/soKYT8XBlx9wmD0yHY0qx6aK1Df5ItKlOJb6YkSMC1QACY4LVW1zlF1fdN7GptjQ/lLgnZk15/i5B7rTFYoCoPje3ut6VV5A5GPG0lavYs9tpJM5sYI9UCbjx0Z1Z/hPmb0Futj/RTZaXi1HP4k4q6zq3/JJhVVn+b1T1X5zbUabKC8XV4RE9NsooNK4PV0WjbpW9z/l5xoIkGYrWNviHZLc+pcqXnI82EJNZq+/K31NTOrUebP9U0Ktd9t8tassLHhL4hXM7QdDfBx8PuTJYZw9xamPUlZfmTtnK+87VmB7pHHgbzceAm5zGm7wR3/UdJcMiCvquzRZXK6/esKo0/36QFY6sM/HyeqYz8kkh6tS0uMtGuVtBIh84lwPmLd7Uo8KLK0PlQofZ2+KN+K9b8c0pRxNpVNjuXF44f/kHyUKbqUFEo4ONUiBebD9VLXn19spwxgt84pi/fOPghF1ou9y0caVsC+1gZno8M7qjK14SukyE/3Rum0yR27oqGsBQiSvbaI01Z8So1c2eFokO3nYbageKEC7yGvr6nKrw5cnoSx7dObDk0Z2ubVBXxGLezjCryBY3bdzlIL2xdWLapBZ6MfD7rjRlletzmoVV2LuwLEsluKYsf2syfhZ6TJxAiFclY1WqdbNnm6jeXVK1+YiKfkeVkQb6arAq9EBNWeDhOUs3zRA17hfli0rraIBgVeiwwEsiunhlacEZkbt5izeNiYkxQQwZquhJAFNkX8yyLu9I16nhqjzafVqsKrwDdCLwak1Z4AzDFqwK/Qz4e4fpD1eVBR7sSmPPo/IVy9QviyE3OB//uL9G/jXTgaRgVf39II8QXxuobkdkIj2/zU8ahuch04pdLxi3gF7JmbuPARCw1ObV2l8jg9zsMHOt7OKqUJUzF0eyPf68ZQmZieLqcEBU1wM+lO3H2/sVPHvfxI7tGSWP7hyoWa2POEnSZAujE6APfmZ/4BdOlWlGUFy56a9EjDUkeFGGCGOG9uO8AX5QaDwVZe/RFkzLWZcIaq/f3EHhUG1ZwFVZs+vkqKG84lz6W8326xOfiWolthItxVqQqOiiRQ0jNat1HUKZQ4PXI3hPT3sNAvn5jlGhmrOp7O+K2vLC19XiZ/H7LJ+HGy8ZzeWThzF5zCAmnz+Iz0/K46aZY5ysDyQo+jiqa1T1AdBi4IvAFwVuUmdhBiDIarfyuM5BRoj8wYe/BcgRZC7wXwDBqk03QDw/Kctqywpfj7e5uuJlr89v/g5lEkDewCzyLxzM8IHZIKCq7D3aSujD43YtiMjtzfj2AN9xK1dPuLriZa8YfBsgJ8vLDYWjztg7A3ZtylXThvNi/UGnEEnaom3RSXX3XfxxMr7BqvAcZ4VuiViukr2QwsiuK595AviNc3tjR7G7GPGKziji+XFim1Gj8+5BmQlw/tB+zMofwfBB2Z07FUQYm5fDFwtHMTg3PqDl7+curZ/uVq6eMHr0kGtx9mLmXzg4qaLj8HqEwLh4Rl+zvVmerySjs8ve9DYAhTdWlRbsdStPSjUWKhKP0PnF8JUVLwldhuJUmOqKmgVTT3PuBf0G2K/v5ybmddSYdIXfa3DZpGHx54ZlyTdTkat7GJ+15YAx5yW1c6dh1JDOrL4YxqXJaCIRzx04RlNgWUrSpEI8ad/0l+IhT0G+ZRj8rfPIxLJOSwA7K7jJABcOz8Xn7bmrgTk+hju7shSuTUWu7mEvpz0eweft3eaJSOfoV87YpuLYk79zqI/4fQNcz9eQorIrKsRC7ay6KiMVnFdNXqxZOGNnIq1anonx6yG57mzekNyOUuOMLHTi50jFLCVm9h4FtVRpdYqNVPXmYFX4l3dUh6+uqFADoNnImhff547o4t7rYE5HyqVa0SHeJ+gsPswCUNE1XelUrA4XzsW2FadNB6GievaHGCjvOT/Zd6x3N/7g8U7dieAFnWepvrxzTHhfcWXoCVQfch43RcXz81TFSVnZdbOnRYTTEqxmltf8TVc6n2l1FBsePeluR/TRJieSq+kllrvCyLaex8mbhj9sJBrr3oU3LSX0oZ31EzBB38ZxOVQZKcJdxNN5Iv9Rt2BayvnYtIoQ9+0/skJQZ6iIxCLGRV1pVtxTuE9gK8DuI6do66Xw5ujJdo42OSNLeCEdubrCqXJ6FuBUe4xXNh+mJYkcbVGT17YcSqw/f7ymrOAyU2Uiov8MGk4gj/S32h85g4kLpKXsVyquicUsnYtigRom8ssbH915xqllltpBqWhMeXPbEaKx5IP1VLvJW9uPxHNLMVPk8XTk6oo5izeOw96zCcCx5naeeW8/72w/ws79J9lx4CTrdhzlD+v3cbjRefuUjbka+S7Y2aDoIO9P7Uot57FYC9MNLaRdXrtmYeFTKvowgAjTz8tu+4+uNLEh25aCnVH/uKmN5zft58NDzUScTZwt7Sbb9zXx/Kb9nGqzS6ZF5OE1pckDWKnC8HgeB+LO87sApmnx4cen2PD+MTbuOsYHh5s7jafwEibXJirTeyL2E5xDBURZWVtauDxdec7KCN346M6swVmt60WwFyEiC2pK859IpClatmGYN+Z9wan36w1PfmZ//t2ZiI8Eq8O3ovZ+R4G1q8oCtxcvqf+yGHIfcBWdMRpT4B1L9LHaBYHVibaipDp8u6rW2izY7feZBU/eOSPtco6ztvjFlaHJIryJXTvRrqI3da0mnbuiPjfWKj8W4R6SH5J4AKGipjRQdbbygL0/ffuocL0zCE56TWvKinsK46k9rq542Tv6gqEXaMzqZ7Tl7nEy+aehZOnmK9SyXsQuFW6zLLnybA9AyMgZUcXV9bNE5Tns0dKsFtfXLgy81ZVu3mNbh0azoreIpfchUghYFnLbwf1HfpfJk8eKq+q/LsivAZxtdT9Ipf0dSzYXWB7rJScTo4jOryktWHG2cmXsQK5gdfhuVJc6t41iGDevWjD9jaS0VfWvg1yhyuba8kB+pmTolCX0Isq1QBMxxqVyZJJ9yKPxHPEqJ9F/rikt+Ekm5MrY/hNnrv4utm86WC3rheLK0FeTU8sUAEFdlx+7xZxl4bEo12ALsiYVRRcvqf8SlvECjqJV9GeZUjRk+ECumrLAw6rcg72PpZ8Ivw5W138vvtyFjpiJU4goGVe2x9RbcL6XR/RXbtsFq8LfFkN+T7w2RvhRbWlB+gcdJEHGTz+rLQ9UKhLELuzxoPLQjtGbn4nv9bbU6EjAWsiGTPdvKfHExrH2Qdvf7I1+7uL64cVVoadAH8E+OjQmwjdrSgPf761tqjgn5/rVluWvFcOYhb0/BdAbTI/RUFJZ/zeiGt/0b2X7Y0nn9LOBYO+hRPWVZHsYE1FSXX+b6ZGwQHyv5jGwbl5VGliUabngHCkbYNWC6W9EDc8M7Ug4aJ6KPIkwH0AhfDY+azI4W0jsQ3JFuj3Hqbg6HAhWhV5SlTpguCPPnyyvFNaUFf5PJmVKxDlTNkDdgmnHassCtwpyD5213bkAAgPnLAmndzxGN5BYZ4xG0TNWocHq0CXByvrVoroBmOV83CIq344N3nbN6rvy92RSnjPkO5fME1FcuT5PxP8I2CM7QYR1oIs92VrnBI7SRkl1/W3OaEUtLq9dGHiraFFDf58/dquq3CmQWIKhIE/h1X+ouSvwfjcsM4pP4bDyjUVqGd8S5ApOf7NaUXlRhKdjyqtryvNdlXSdxjvB17eU7xsG+Sg34bxNCXheRB9cVVrwdvrfJHV8asfwO8Xs9wJ3AYOSkBxCZZ0a1g5DjT+byh6vYTVheprEa5qmShZieQxLRpr2CWnni8rNCN0tklpAfm0Z5s9XLyhM61y+s8Wn/gcmihY19Pf5rK8JerPCDSRXfLpoB/6oqk8Z7Tlrk8VAPkl86spORFnlet9Jw3elqFwDTEcJIIzHpZwKHxuiLaqyHeE/sw3/n5a52FP+SeEvStnJULSooX+WRyfg0SEWOgh0kH12CCh6UpAThmnsM6Vt31/S36TpQx/60Ic+9KEPfehDH/rQh//v8L/MsrP5Wh+LcgAAAABJRU5ErkJggg==;" vertex="1" parent="1">
          <mxGeometry x="220" y="79.25" width="61.5" height="61.5" as="geometry" />
        </mxCell>
        <mxCell id="m3Fp8r4ad19MvM2iiD0p-17" value="Client UI/Admin UI" style="text;html=1;align=center;verticalAlign=middle;resizable=0;points=[];autosize=1;strokeColor=none;fillColor=none;" vertex="1" parent="1">
          <mxGeometry x="24" y="214" width="120" height="30" as="geometry" />
        </mxCell>
        <mxCell id="m3Fp8r4ad19MvM2iiD0p-18" value="Storage" style="text;html=1;align=center;verticalAlign=middle;resizable=0;points=[];autosize=1;strokeColor=none;fillColor=none;" vertex="1" parent="1">
          <mxGeometry x="740" y="70" width="70" height="30" as="geometry" />
        </mxCell>
        <mxCell id="m3Fp8r4ad19MvM2iiD0p-19" value="typesense" style="text;html=1;align=center;verticalAlign=middle;resizable=0;points=[];autosize=1;strokeColor=none;fillColor=none;" vertex="1" parent="1">
          <mxGeometry x="719.29" y="110" width="80" height="30" as="geometry" />
        </mxCell>
        <mxCell id="m3Fp8r4ad19MvM2iiD0p-20" value="redis" style="text;html=1;align=center;verticalAlign=middle;resizable=0;points=[];autosize=1;strokeColor=none;fillColor=none;" vertex="1" parent="1">
          <mxGeometry x="734.29" y="176" width="50" height="30" as="geometry" />
        </mxCell>
        <mxCell id="m3Fp8r4ad19MvM2iiD0p-21" value="mongo db" style="text;html=1;align=center;verticalAlign=middle;resizable=0;points=[];autosize=1;strokeColor=none;fillColor=none;" vertex="1" parent="1">
          <mxGeometry x="719.29" y="244" width="80" height="30" as="geometry" />
        </mxCell>
        <mxCell id="m3Fp8r4ad19MvM2iiD0p-22" value="Backend APIs" style="text;html=1;align=center;verticalAlign=middle;resizable=0;points=[];autosize=1;strokeColor=none;fillColor=none;" vertex="1" parent="1">
          <mxGeometry x="352" y="246" width="100" height="30" as="geometry" />
        </mxCell>
      </root>
    </mxGraphModel>
  </diagram>
</mxfile>
